<mxfile host="app.diagrams.net" agent="Mozilla/5.0 (Windows NT 10.0; Win64; x64) AppleWebKit/537.36 (KHTML, like Gecko) Chrome/126.0.0.0 Safari/537.36 Edg/126.0.0.0" version="24.7.5" pages="7">
  <diagram name="Create Account" id="e7e014a7-5840-1c2e-5031-d8a46d1fe8dd">
    <mxGraphModel dx="1042" dy="577" grid="1" gridSize="10" guides="1" tooltips="1" connect="1" arrows="1" fold="1" page="1" pageScale="1" pageWidth="1169" pageHeight="826" background="none" math="0" shadow="0">
      <root>
        <mxCell id="0" />
        <mxCell id="1" parent="0" />
        <mxCell id="2" value="Create account" style="swimlane;whiteSpace=wrap" parent="1" vertex="1">
          <mxGeometry x="270" y="50" width="400" height="502" as="geometry" />
        </mxCell>
        <mxCell id="5" value="" style="ellipse;shape=startState;fillColor=#000000;strokeColor=#ff0000;" parent="2" vertex="1">
          <mxGeometry x="90" y="52" width="30" height="30" as="geometry" />
        </mxCell>
        <mxCell id="6" value="" style="edgeStyle=elbowEdgeStyle;elbow=horizontal;verticalAlign=bottom;endArrow=open;endSize=8;strokeColor=#FF0000;endFill=1;rounded=0" parent="2" source="5" target="7" edge="1">
          <mxGeometry x="100" y="40" as="geometry">
            <mxPoint x="105" y="122" as="targetPoint" />
          </mxGeometry>
        </mxCell>
        <mxCell id="7" value="input info" style="" parent="2" vertex="1">
          <mxGeometry x="50" y="122" width="110" height="50" as="geometry" />
        </mxCell>
        <mxCell id="XV-IO-psPw5XsLc2fugK-45" style="edgeStyle=orthogonalEdgeStyle;rounded=0;orthogonalLoop=1;jettySize=auto;html=1;exitX=1;exitY=0.5;exitDx=0;exitDy=0;entryX=0;entryY=0.5;entryDx=0;entryDy=0;" edge="1" parent="2" source="XV-IO-psPw5XsLc2fugK-41" target="XV-IO-psPw5XsLc2fugK-42">
          <mxGeometry relative="1" as="geometry" />
        </mxCell>
        <mxCell id="XV-IO-psPw5XsLc2fugK-47" value="[usename exist]" style="edgeLabel;html=1;align=center;verticalAlign=middle;resizable=0;points=[];" vertex="1" connectable="0" parent="XV-IO-psPw5XsLc2fugK-45">
          <mxGeometry x="0.072" y="-2" relative="1" as="geometry">
            <mxPoint as="offset" />
          </mxGeometry>
        </mxCell>
        <mxCell id="XV-IO-psPw5XsLc2fugK-49" style="edgeStyle=orthogonalEdgeStyle;rounded=0;orthogonalLoop=1;jettySize=auto;html=1;exitX=0.5;exitY=1;exitDx=0;exitDy=0;" edge="1" parent="2" source="XV-IO-psPw5XsLc2fugK-41" target="XV-IO-psPw5XsLc2fugK-56">
          <mxGeometry relative="1" as="geometry">
            <mxPoint x="105" y="312" as="targetPoint" />
          </mxGeometry>
        </mxCell>
        <mxCell id="XV-IO-psPw5XsLc2fugK-50" value="[username not exist]" style="edgeLabel;html=1;align=center;verticalAlign=middle;resizable=0;points=[];" vertex="1" connectable="0" parent="XV-IO-psPw5XsLc2fugK-49">
          <mxGeometry x="0.18" y="2" relative="1" as="geometry">
            <mxPoint as="offset" />
          </mxGeometry>
        </mxCell>
        <mxCell id="XV-IO-psPw5XsLc2fugK-41" value="" style="rhombus;whiteSpace=wrap;html=1;" vertex="1" parent="2">
          <mxGeometry x="90" y="202" width="30" height="30" as="geometry" />
        </mxCell>
        <mxCell id="9" value="" style="endArrow=open;strokeColor=#000000;endFill=1;rounded=0;entryX=0.5;entryY=0;entryDx=0;entryDy=0;" parent="2" source="7" target="XV-IO-psPw5XsLc2fugK-41" edge="1">
          <mxGeometry relative="1" as="geometry" />
        </mxCell>
        <mxCell id="XV-IO-psPw5XsLc2fugK-42" value="display &#xa;&quot;username exist&quot;" style="" vertex="1" parent="2">
          <mxGeometry x="260" y="192" width="110" height="50" as="geometry" />
        </mxCell>
        <mxCell id="XV-IO-psPw5XsLc2fugK-43" value="" style="ellipse;shape=endState;fillColor=#000000;strokeColor=#ff0000" vertex="1" parent="2">
          <mxGeometry x="300" y="102" width="30" height="30" as="geometry" />
        </mxCell>
        <mxCell id="XV-IO-psPw5XsLc2fugK-44" style="edgeStyle=orthogonalEdgeStyle;rounded=0;orthogonalLoop=1;jettySize=auto;html=1;entryX=0.491;entryY=0.805;entryDx=0;entryDy=0;entryPerimeter=0;" edge="1" parent="2" source="XV-IO-psPw5XsLc2fugK-42" target="XV-IO-psPw5XsLc2fugK-43">
          <mxGeometry relative="1" as="geometry" />
        </mxCell>
        <mxCell id="XV-IO-psPw5XsLc2fugK-61" style="edgeStyle=orthogonalEdgeStyle;rounded=0;orthogonalLoop=1;jettySize=auto;html=1;" edge="1" parent="2" source="XV-IO-psPw5XsLc2fugK-51" target="XV-IO-psPw5XsLc2fugK-55">
          <mxGeometry relative="1" as="geometry" />
        </mxCell>
        <mxCell id="XV-IO-psPw5XsLc2fugK-51" value="create user" style="" vertex="1" parent="2">
          <mxGeometry x="50" y="422" width="110" height="50" as="geometry" />
        </mxCell>
        <mxCell id="XV-IO-psPw5XsLc2fugK-54" value="" style="ellipse;shape=endState;fillColor=#000000;strokeColor=#ff0000" vertex="1" parent="2">
          <mxGeometry x="240" y="330" width="30" height="30" as="geometry" />
        </mxCell>
        <mxCell id="XV-IO-psPw5XsLc2fugK-55" value="" style="ellipse;shape=endState;fillColor=#000000;strokeColor=#ff0000" vertex="1" parent="2">
          <mxGeometry x="240" y="432" width="30" height="30" as="geometry" />
        </mxCell>
        <mxCell id="XV-IO-psPw5XsLc2fugK-59" style="edgeStyle=orthogonalEdgeStyle;rounded=0;orthogonalLoop=1;jettySize=auto;html=1;exitX=0.5;exitY=1;exitDx=0;exitDy=0;entryX=0.5;entryY=0;entryDx=0;entryDy=0;" edge="1" parent="2" source="XV-IO-psPw5XsLc2fugK-56" target="XV-IO-psPw5XsLc2fugK-51">
          <mxGeometry relative="1" as="geometry" />
        </mxCell>
        <mxCell id="XV-IO-psPw5XsLc2fugK-60" value="[yes]" style="edgeLabel;html=1;align=center;verticalAlign=middle;resizable=0;points=[];" vertex="1" connectable="0" parent="XV-IO-psPw5XsLc2fugK-59">
          <mxGeometry x="-0.183" y="1" relative="1" as="geometry">
            <mxPoint as="offset" />
          </mxGeometry>
        </mxCell>
        <mxCell id="XV-IO-psPw5XsLc2fugK-56" value="confirm" style="rhombus;whiteSpace=wrap;html=1;" vertex="1" parent="2">
          <mxGeometry x="75" y="315" width="60" height="60" as="geometry" />
        </mxCell>
        <mxCell id="XV-IO-psPw5XsLc2fugK-57" style="edgeStyle=orthogonalEdgeStyle;rounded=0;orthogonalLoop=1;jettySize=auto;html=1;exitX=1;exitY=0.5;exitDx=0;exitDy=0;" edge="1" parent="2" source="XV-IO-psPw5XsLc2fugK-56" target="XV-IO-psPw5XsLc2fugK-54">
          <mxGeometry relative="1" as="geometry">
            <mxPoint x="260" y="362" as="targetPoint" />
          </mxGeometry>
        </mxCell>
        <mxCell id="XV-IO-psPw5XsLc2fugK-58" value="[no]" style="edgeLabel;html=1;align=center;verticalAlign=middle;resizable=0;points=[];" vertex="1" connectable="0" parent="XV-IO-psPw5XsLc2fugK-57">
          <mxGeometry x="0.0057" relative="1" as="geometry">
            <mxPoint as="offset" />
          </mxGeometry>
        </mxCell>
      </root>
    </mxGraphModel>
  </diagram>
  <diagram id="nGYaAy7BTeyGX2--aTV0" name="Login">
    <mxGraphModel dx="1042" dy="577" grid="1" gridSize="10" guides="1" tooltips="1" connect="1" arrows="1" fold="1" page="1" pageScale="1" pageWidth="850" pageHeight="1100" math="0" shadow="0">
      <root>
        <mxCell id="0" />
        <mxCell id="1" parent="0" />
        <mxCell id="BECm5bsudPYOtUfW8pkE-1" value="Login" style="swimlane;whiteSpace=wrap" vertex="1" parent="1">
          <mxGeometry x="260" y="60" width="420" height="502" as="geometry" />
        </mxCell>
        <mxCell id="BECm5bsudPYOtUfW8pkE-2" value="" style="ellipse;shape=startState;fillColor=#000000;strokeColor=#ff0000;" vertex="1" parent="BECm5bsudPYOtUfW8pkE-1">
          <mxGeometry x="90" y="52" width="30" height="30" as="geometry" />
        </mxCell>
        <mxCell id="BECm5bsudPYOtUfW8pkE-3" value="" style="edgeStyle=elbowEdgeStyle;elbow=horizontal;verticalAlign=bottom;endArrow=open;endSize=8;strokeColor=#FF0000;endFill=1;rounded=0" edge="1" parent="BECm5bsudPYOtUfW8pkE-1" source="BECm5bsudPYOtUfW8pkE-2" target="BECm5bsudPYOtUfW8pkE-4">
          <mxGeometry x="100" y="40" as="geometry">
            <mxPoint x="105" y="122" as="targetPoint" />
          </mxGeometry>
        </mxCell>
        <mxCell id="BECm5bsudPYOtUfW8pkE-4" value="input &#xa;usename/password" style="" vertex="1" parent="BECm5bsudPYOtUfW8pkE-1">
          <mxGeometry x="45" y="122" width="120" height="58" as="geometry" />
        </mxCell>
        <mxCell id="BECm5bsudPYOtUfW8pkE-5" style="edgeStyle=orthogonalEdgeStyle;rounded=0;orthogonalLoop=1;jettySize=auto;html=1;exitX=1;exitY=0.5;exitDx=0;exitDy=0;entryX=0;entryY=0.5;entryDx=0;entryDy=0;verticalAlign=middle;" edge="1" parent="BECm5bsudPYOtUfW8pkE-1" source="BECm5bsudPYOtUfW8pkE-9" target="BECm5bsudPYOtUfW8pkE-11">
          <mxGeometry relative="1" as="geometry" />
        </mxCell>
        <mxCell id="BECm5bsudPYOtUfW8pkE-6" value="[not exist in database]" style="edgeLabel;html=1;align=center;verticalAlign=middle;resizable=0;points=[];" vertex="1" connectable="0" parent="BECm5bsudPYOtUfW8pkE-5">
          <mxGeometry x="0.072" y="-2" relative="1" as="geometry">
            <mxPoint as="offset" />
          </mxGeometry>
        </mxCell>
        <mxCell id="BECm5bsudPYOtUfW8pkE-7" style="edgeStyle=orthogonalEdgeStyle;rounded=0;orthogonalLoop=1;jettySize=auto;html=1;exitX=0.5;exitY=1;exitDx=0;exitDy=0;" edge="1" parent="BECm5bsudPYOtUfW8pkE-1" source="BECm5bsudPYOtUfW8pkE-9" target="BECm5bsudPYOtUfW8pkE-20">
          <mxGeometry relative="1" as="geometry">
            <mxPoint x="105" y="312" as="targetPoint" />
          </mxGeometry>
        </mxCell>
        <mxCell id="BECm5bsudPYOtUfW8pkE-8" value="[exist in database]" style="edgeLabel;html=1;align=center;verticalAlign=middle;resizable=0;points=[];" vertex="1" connectable="0" parent="BECm5bsudPYOtUfW8pkE-7">
          <mxGeometry x="0.18" y="2" relative="1" as="geometry">
            <mxPoint as="offset" />
          </mxGeometry>
        </mxCell>
        <mxCell id="BECm5bsudPYOtUfW8pkE-9" value="" style="rhombus;whiteSpace=wrap;html=1;" vertex="1" parent="BECm5bsudPYOtUfW8pkE-1">
          <mxGeometry x="90" y="202" width="30" height="30" as="geometry" />
        </mxCell>
        <mxCell id="BECm5bsudPYOtUfW8pkE-10" value="" style="endArrow=open;strokeColor=#000000;endFill=1;rounded=0;entryX=0.5;entryY=0;entryDx=0;entryDy=0;" edge="1" parent="BECm5bsudPYOtUfW8pkE-1" source="BECm5bsudPYOtUfW8pkE-4" target="BECm5bsudPYOtUfW8pkE-9">
          <mxGeometry relative="1" as="geometry" />
        </mxCell>
        <mxCell id="BECm5bsudPYOtUfW8pkE-11" value="display &#xa;&quot;user not found&quot;" style="" vertex="1" parent="BECm5bsudPYOtUfW8pkE-1">
          <mxGeometry x="270" y="192" width="110" height="50" as="geometry" />
        </mxCell>
        <mxCell id="BECm5bsudPYOtUfW8pkE-12" value="" style="ellipse;shape=endState;fillColor=#000000;strokeColor=#ff0000" vertex="1" parent="BECm5bsudPYOtUfW8pkE-1">
          <mxGeometry x="310" y="40" width="30" height="30" as="geometry" />
        </mxCell>
        <mxCell id="BECm5bsudPYOtUfW8pkE-13" style="edgeStyle=orthogonalEdgeStyle;rounded=0;orthogonalLoop=1;jettySize=auto;html=1;" edge="1" parent="BECm5bsudPYOtUfW8pkE-1" source="BECm5bsudPYOtUfW8pkE-11" target="BECm5bsudPYOtUfW8pkE-24">
          <mxGeometry relative="1" as="geometry" />
        </mxCell>
        <mxCell id="BECm5bsudPYOtUfW8pkE-14" style="edgeStyle=orthogonalEdgeStyle;rounded=0;orthogonalLoop=1;jettySize=auto;html=1;" edge="1" parent="BECm5bsudPYOtUfW8pkE-1" source="BECm5bsudPYOtUfW8pkE-15" target="BECm5bsudPYOtUfW8pkE-17">
          <mxGeometry relative="1" as="geometry" />
        </mxCell>
        <mxCell id="BECm5bsudPYOtUfW8pkE-15" value="Admin menu" style="" vertex="1" parent="BECm5bsudPYOtUfW8pkE-1">
          <mxGeometry x="50" y="422" width="110" height="50" as="geometry" />
        </mxCell>
        <mxCell id="BECm5bsudPYOtUfW8pkE-17" value="" style="ellipse;shape=endState;fillColor=#000000;strokeColor=#ff0000" vertex="1" parent="BECm5bsudPYOtUfW8pkE-1">
          <mxGeometry x="240" y="432" width="30" height="30" as="geometry" />
        </mxCell>
        <mxCell id="BECm5bsudPYOtUfW8pkE-18" style="edgeStyle=orthogonalEdgeStyle;rounded=0;orthogonalLoop=1;jettySize=auto;html=1;exitX=0.5;exitY=1;exitDx=0;exitDy=0;entryX=0.5;entryY=0;entryDx=0;entryDy=0;" edge="1" parent="BECm5bsudPYOtUfW8pkE-1" source="BECm5bsudPYOtUfW8pkE-20" target="BECm5bsudPYOtUfW8pkE-15">
          <mxGeometry relative="1" as="geometry" />
        </mxCell>
        <mxCell id="BECm5bsudPYOtUfW8pkE-19" value="[yes]" style="edgeLabel;html=1;align=center;verticalAlign=middle;resizable=0;points=[];" vertex="1" connectable="0" parent="BECm5bsudPYOtUfW8pkE-18">
          <mxGeometry x="-0.183" y="1" relative="1" as="geometry">
            <mxPoint as="offset" />
          </mxGeometry>
        </mxCell>
        <mxCell id="BECm5bsudPYOtUfW8pkE-20" value="isAdmin" style="rhombus;whiteSpace=wrap;html=1;" vertex="1" parent="BECm5bsudPYOtUfW8pkE-1">
          <mxGeometry x="75" y="315" width="60" height="60" as="geometry" />
        </mxCell>
        <mxCell id="BECm5bsudPYOtUfW8pkE-21" style="edgeStyle=orthogonalEdgeStyle;rounded=0;orthogonalLoop=1;jettySize=auto;html=1;exitX=1;exitY=0.5;exitDx=0;exitDy=0;entryX=0;entryY=0.5;entryDx=0;entryDy=0;" edge="1" parent="BECm5bsudPYOtUfW8pkE-1" source="BECm5bsudPYOtUfW8pkE-20" target="BECm5bsudPYOtUfW8pkE-29">
          <mxGeometry relative="1" as="geometry">
            <mxPoint x="240" y="345" as="targetPoint" />
          </mxGeometry>
        </mxCell>
        <mxCell id="BECm5bsudPYOtUfW8pkE-22" value="[no]" style="edgeLabel;html=1;align=center;verticalAlign=middle;resizable=0;points=[];" vertex="1" connectable="0" parent="BECm5bsudPYOtUfW8pkE-21">
          <mxGeometry x="0.0057" relative="1" as="geometry">
            <mxPoint as="offset" />
          </mxGeometry>
        </mxCell>
        <mxCell id="BECm5bsudPYOtUfW8pkE-27" style="edgeStyle=orthogonalEdgeStyle;rounded=0;orthogonalLoop=1;jettySize=auto;html=1;" edge="1" parent="BECm5bsudPYOtUfW8pkE-1" source="BECm5bsudPYOtUfW8pkE-24" target="BECm5bsudPYOtUfW8pkE-12">
          <mxGeometry relative="1" as="geometry" />
        </mxCell>
        <mxCell id="BECm5bsudPYOtUfW8pkE-28" value="[n]" style="edgeLabel;html=1;align=center;verticalAlign=middle;resizable=0;points=[];" vertex="1" connectable="0" parent="BECm5bsudPYOtUfW8pkE-27">
          <mxGeometry x="-0.15" relative="1" as="geometry">
            <mxPoint as="offset" />
          </mxGeometry>
        </mxCell>
        <mxCell id="BECm5bsudPYOtUfW8pkE-24" value="continue" style="rhombus;whiteSpace=wrap;html=1;" vertex="1" parent="BECm5bsudPYOtUfW8pkE-1">
          <mxGeometry x="296" y="110" width="58" height="58" as="geometry" />
        </mxCell>
        <mxCell id="BECm5bsudPYOtUfW8pkE-25" style="edgeStyle=orthogonalEdgeStyle;rounded=0;orthogonalLoop=1;jettySize=auto;html=1;entryX=0.958;entryY=0.259;entryDx=0;entryDy=0;entryPerimeter=0;" edge="1" parent="BECm5bsudPYOtUfW8pkE-1" source="BECm5bsudPYOtUfW8pkE-24" target="BECm5bsudPYOtUfW8pkE-4">
          <mxGeometry relative="1" as="geometry" />
        </mxCell>
        <mxCell id="BECm5bsudPYOtUfW8pkE-26" value="[y]" style="edgeLabel;html=1;align=center;verticalAlign=middle;resizable=0;points=[];" vertex="1" connectable="0" parent="BECm5bsudPYOtUfW8pkE-25">
          <mxGeometry x="-0.1401" y="1" relative="1" as="geometry">
            <mxPoint as="offset" />
          </mxGeometry>
        </mxCell>
        <mxCell id="BECm5bsudPYOtUfW8pkE-30" style="edgeStyle=orthogonalEdgeStyle;rounded=0;orthogonalLoop=1;jettySize=auto;html=1;" edge="1" parent="BECm5bsudPYOtUfW8pkE-1" source="BECm5bsudPYOtUfW8pkE-29" target="BECm5bsudPYOtUfW8pkE-17">
          <mxGeometry relative="1" as="geometry" />
        </mxCell>
        <mxCell id="BECm5bsudPYOtUfW8pkE-29" value="User menu" style="" vertex="1" parent="BECm5bsudPYOtUfW8pkE-1">
          <mxGeometry x="200" y="320" width="110" height="50" as="geometry" />
        </mxCell>
      </root>
    </mxGraphModel>
  </diagram>
  <diagram id="kI_BlPbs2v_wD475HnmK" name="Add book">
    <mxGraphModel dx="1042" dy="577" grid="1" gridSize="10" guides="1" tooltips="1" connect="1" arrows="1" fold="1" page="1" pageScale="1" pageWidth="850" pageHeight="1100" math="0" shadow="0">
      <root>
        <mxCell id="0" />
        <mxCell id="1" parent="0" />
        <mxCell id="lQgo3_YZKVmYxO_jbbI8-1" value="Add book" style="swimlane;whiteSpace=wrap;startSize=23;" vertex="1" parent="1">
          <mxGeometry x="250" y="130" width="330" height="540" as="geometry" />
        </mxCell>
        <mxCell id="lQgo3_YZKVmYxO_jbbI8-2" value="" style="ellipse;shape=startState;fillColor=#000000;strokeColor=#ff0000;" vertex="1" parent="lQgo3_YZKVmYxO_jbbI8-1">
          <mxGeometry x="145" y="52" width="30" height="30" as="geometry" />
        </mxCell>
        <mxCell id="lQgo3_YZKVmYxO_jbbI8-3" value="" style="edgeStyle=elbowEdgeStyle;elbow=horizontal;verticalAlign=bottom;endArrow=open;endSize=8;strokeColor=#FF0000;endFill=1;rounded=0" edge="1" parent="lQgo3_YZKVmYxO_jbbI8-1" source="lQgo3_YZKVmYxO_jbbI8-2" target="lQgo3_YZKVmYxO_jbbI8-4">
          <mxGeometry x="100" y="40" as="geometry">
            <mxPoint x="160" y="122" as="targetPoint" />
          </mxGeometry>
        </mxCell>
        <mxCell id="lQgo3_YZKVmYxO_jbbI8-4" value="input &#xa;book info" style="" vertex="1" parent="lQgo3_YZKVmYxO_jbbI8-1">
          <mxGeometry x="100" y="122" width="120" height="58" as="geometry" />
        </mxCell>
        <mxCell id="lQgo3_YZKVmYxO_jbbI8-29" style="edgeStyle=orthogonalEdgeStyle;rounded=0;orthogonalLoop=1;jettySize=auto;html=1;entryX=0;entryY=0.5;entryDx=0;entryDy=0;" edge="1" parent="lQgo3_YZKVmYxO_jbbI8-1" source="lQgo3_YZKVmYxO_jbbI8-9" target="lQgo3_YZKVmYxO_jbbI8-4">
          <mxGeometry relative="1" as="geometry">
            <Array as="points">
              <mxPoint x="40" y="217" />
              <mxPoint x="40" y="151" />
            </Array>
          </mxGeometry>
        </mxCell>
        <mxCell id="lQgo3_YZKVmYxO_jbbI8-31" value="[invalid]" style="edgeLabel;html=1;align=center;verticalAlign=middle;resizable=0;points=[];" vertex="1" connectable="0" parent="lQgo3_YZKVmYxO_jbbI8-29">
          <mxGeometry x="-0.3749" y="1" relative="1" as="geometry">
            <mxPoint as="offset" />
          </mxGeometry>
        </mxCell>
        <mxCell id="lQgo3_YZKVmYxO_jbbI8-33" style="edgeStyle=orthogonalEdgeStyle;rounded=0;orthogonalLoop=1;jettySize=auto;html=1;exitX=0.5;exitY=1;exitDx=0;exitDy=0;" edge="1" parent="lQgo3_YZKVmYxO_jbbI8-1" source="lQgo3_YZKVmYxO_jbbI8-9" target="lQgo3_YZKVmYxO_jbbI8-41">
          <mxGeometry relative="1" as="geometry">
            <mxPoint x="160" y="310" as="targetPoint" />
          </mxGeometry>
        </mxCell>
        <mxCell id="lQgo3_YZKVmYxO_jbbI8-34" value="[valid]" style="edgeLabel;html=1;align=center;verticalAlign=middle;resizable=0;points=[];" vertex="1" connectable="0" parent="lQgo3_YZKVmYxO_jbbI8-33">
          <mxGeometry x="-0.381" y="-1" relative="1" as="geometry">
            <mxPoint as="offset" />
          </mxGeometry>
        </mxCell>
        <mxCell id="lQgo3_YZKVmYxO_jbbI8-9" value="" style="rhombus;whiteSpace=wrap;html=1;" vertex="1" parent="lQgo3_YZKVmYxO_jbbI8-1">
          <mxGeometry x="145" y="202" width="30" height="30" as="geometry" />
        </mxCell>
        <mxCell id="lQgo3_YZKVmYxO_jbbI8-10" value="" style="endArrow=open;strokeColor=#000000;endFill=1;rounded=0;entryX=0.5;entryY=0;entryDx=0;entryDy=0;" edge="1" parent="lQgo3_YZKVmYxO_jbbI8-1" source="lQgo3_YZKVmYxO_jbbI8-4" target="lQgo3_YZKVmYxO_jbbI8-9">
          <mxGeometry relative="1" as="geometry" />
        </mxCell>
        <mxCell id="lQgo3_YZKVmYxO_jbbI8-37" style="edgeStyle=orthogonalEdgeStyle;rounded=0;orthogonalLoop=1;jettySize=auto;html=1;entryX=0;entryY=0.5;entryDx=0;entryDy=0;" edge="1" parent="lQgo3_YZKVmYxO_jbbI8-1" source="lQgo3_YZKVmYxO_jbbI8-11" target="lQgo3_YZKVmYxO_jbbI8-12">
          <mxGeometry relative="1" as="geometry" />
        </mxCell>
        <mxCell id="lQgo3_YZKVmYxO_jbbI8-11" value="Add book to &#xa;database" style="" vertex="1" parent="lQgo3_YZKVmYxO_jbbI8-1">
          <mxGeometry x="112.5" y="480" width="95" height="40" as="geometry" />
        </mxCell>
        <mxCell id="lQgo3_YZKVmYxO_jbbI8-12" value="" style="ellipse;shape=endState;fillColor=#000000;strokeColor=#ff0000" vertex="1" parent="lQgo3_YZKVmYxO_jbbI8-1">
          <mxGeometry x="250" y="485" width="30" height="30" as="geometry" />
        </mxCell>
        <mxCell id="lQgo3_YZKVmYxO_jbbI8-35" style="edgeStyle=orthogonalEdgeStyle;rounded=0;orthogonalLoop=1;jettySize=auto;html=1;" edge="1" parent="lQgo3_YZKVmYxO_jbbI8-1" source="lQgo3_YZKVmYxO_jbbI8-30" target="lQgo3_YZKVmYxO_jbbI8-11">
          <mxGeometry relative="1" as="geometry" />
        </mxCell>
        <mxCell id="lQgo3_YZKVmYxO_jbbI8-36" value="[y]" style="edgeLabel;html=1;align=center;verticalAlign=middle;resizable=0;points=[];" vertex="1" connectable="0" parent="lQgo3_YZKVmYxO_jbbI8-35">
          <mxGeometry x="-0.2" y="-2" relative="1" as="geometry">
            <mxPoint as="offset" />
          </mxGeometry>
        </mxCell>
        <mxCell id="lQgo3_YZKVmYxO_jbbI8-38" style="edgeStyle=orthogonalEdgeStyle;rounded=0;orthogonalLoop=1;jettySize=auto;html=1;" edge="1" parent="lQgo3_YZKVmYxO_jbbI8-1" source="lQgo3_YZKVmYxO_jbbI8-30" target="lQgo3_YZKVmYxO_jbbI8-12">
          <mxGeometry relative="1" as="geometry" />
        </mxCell>
        <mxCell id="lQgo3_YZKVmYxO_jbbI8-39" value="[n]" style="edgeLabel;html=1;align=center;verticalAlign=middle;resizable=0;points=[];" vertex="1" connectable="0" parent="lQgo3_YZKVmYxO_jbbI8-38">
          <mxGeometry x="-0.2485" y="-2" relative="1" as="geometry">
            <mxPoint as="offset" />
          </mxGeometry>
        </mxCell>
        <mxCell id="lQgo3_YZKVmYxO_jbbI8-30" value="confirm" style="rhombus;whiteSpace=wrap;html=1;" vertex="1" parent="lQgo3_YZKVmYxO_jbbI8-1">
          <mxGeometry x="132.5" y="370" width="55" height="60" as="geometry" />
        </mxCell>
        <mxCell id="lQgo3_YZKVmYxO_jbbI8-42" style="edgeStyle=orthogonalEdgeStyle;rounded=0;orthogonalLoop=1;jettySize=auto;html=1;" edge="1" parent="lQgo3_YZKVmYxO_jbbI8-1" source="lQgo3_YZKVmYxO_jbbI8-41" target="lQgo3_YZKVmYxO_jbbI8-30">
          <mxGeometry relative="1" as="geometry" />
        </mxCell>
        <mxCell id="lQgo3_YZKVmYxO_jbbI8-43" value="[not exist in database]" style="edgeLabel;html=1;align=center;verticalAlign=middle;resizable=0;points=[];" vertex="1" connectable="0" parent="lQgo3_YZKVmYxO_jbbI8-42">
          <mxGeometry x="-0.06" y="1" relative="1" as="geometry">
            <mxPoint as="offset" />
          </mxGeometry>
        </mxCell>
        <mxCell id="lQgo3_YZKVmYxO_jbbI8-44" style="edgeStyle=orthogonalEdgeStyle;rounded=0;orthogonalLoop=1;jettySize=auto;html=1;entryX=1;entryY=0.5;entryDx=0;entryDy=0;" edge="1" parent="lQgo3_YZKVmYxO_jbbI8-1" source="lQgo3_YZKVmYxO_jbbI8-41" target="lQgo3_YZKVmYxO_jbbI8-12">
          <mxGeometry relative="1" as="geometry" />
        </mxCell>
        <mxCell id="lQgo3_YZKVmYxO_jbbI8-45" value="[exist in database]" style="edgeLabel;html=1;align=center;verticalAlign=middle;resizable=0;points=[];" vertex="1" connectable="0" parent="lQgo3_YZKVmYxO_jbbI8-44">
          <mxGeometry x="-0.7648" y="-2" relative="1" as="geometry">
            <mxPoint x="21" y="-2" as="offset" />
          </mxGeometry>
        </mxCell>
        <mxCell id="lQgo3_YZKVmYxO_jbbI8-41" value="check ISBN" style="rhombus;whiteSpace=wrap;html=1;" vertex="1" parent="lQgo3_YZKVmYxO_jbbI8-1">
          <mxGeometry x="130" y="270" width="60" height="60" as="geometry" />
        </mxCell>
      </root>
    </mxGraphModel>
  </diagram>
  <diagram id="0Qvn4A6ujmSAzNDZNU47" name="Update book info">
    <mxGraphModel dx="1226" dy="679" grid="1" gridSize="10" guides="1" tooltips="1" connect="1" arrows="1" fold="1" page="1" pageScale="1" pageWidth="850" pageHeight="1100" math="0" shadow="0">
      <root>
        <mxCell id="0" />
        <mxCell id="1" parent="0" />
        <mxCell id="-wt2-x-dtzgsuEaeFiSR-1" value="Update book info" style="swimlane;whiteSpace=wrap;startSize=23;" vertex="1" parent="1">
          <mxGeometry x="210" y="160" width="470" height="640" as="geometry" />
        </mxCell>
        <mxCell id="-wt2-x-dtzgsuEaeFiSR-2" value="" style="ellipse;shape=startState;fillColor=#000000;strokeColor=#ff0000;" vertex="1" parent="-wt2-x-dtzgsuEaeFiSR-1">
          <mxGeometry x="145" y="52" width="30" height="30" as="geometry" />
        </mxCell>
        <mxCell id="-wt2-x-dtzgsuEaeFiSR-3" value="" style="edgeStyle=elbowEdgeStyle;elbow=horizontal;verticalAlign=bottom;endArrow=open;endSize=8;strokeColor=#FF0000;endFill=1;rounded=0" edge="1" parent="-wt2-x-dtzgsuEaeFiSR-1" source="-wt2-x-dtzgsuEaeFiSR-2" target="-wt2-x-dtzgsuEaeFiSR-4">
          <mxGeometry x="100" y="40" as="geometry">
            <mxPoint x="160" y="122" as="targetPoint" />
          </mxGeometry>
        </mxCell>
        <mxCell id="-wt2-x-dtzgsuEaeFiSR-4" value="input &#xa;book name" style="" vertex="1" parent="-wt2-x-dtzgsuEaeFiSR-1">
          <mxGeometry x="100" y="122" width="120" height="58" as="geometry" />
        </mxCell>
        <mxCell id="-wt2-x-dtzgsuEaeFiSR-5" style="edgeStyle=orthogonalEdgeStyle;rounded=0;orthogonalLoop=1;jettySize=auto;html=1;entryX=0.5;entryY=1;entryDx=0;entryDy=0;" edge="1" parent="-wt2-x-dtzgsuEaeFiSR-1" source="-wt2-x-dtzgsuEaeFiSR-9" target="izx8GVxZOJIWfwjTcyak-1">
          <mxGeometry relative="1" as="geometry">
            <Array as="points">
              <mxPoint x="45" y="217" />
            </Array>
            <mxPoint x="40" y="150" as="targetPoint" />
          </mxGeometry>
        </mxCell>
        <mxCell id="-wt2-x-dtzgsuEaeFiSR-6" value="[not exist]" style="edgeLabel;html=1;align=center;verticalAlign=middle;resizable=0;points=[];" vertex="1" connectable="0" parent="-wt2-x-dtzgsuEaeFiSR-5">
          <mxGeometry x="-0.3749" y="1" relative="1" as="geometry">
            <mxPoint as="offset" />
          </mxGeometry>
        </mxCell>
        <mxCell id="izx8GVxZOJIWfwjTcyak-6" style="edgeStyle=orthogonalEdgeStyle;rounded=0;orthogonalLoop=1;jettySize=auto;html=1;" edge="1" parent="-wt2-x-dtzgsuEaeFiSR-1" source="-wt2-x-dtzgsuEaeFiSR-9" target="izx8GVxZOJIWfwjTcyak-5">
          <mxGeometry relative="1" as="geometry" />
        </mxCell>
        <mxCell id="izx8GVxZOJIWfwjTcyak-7" value="[exist]" style="edgeLabel;html=1;align=center;verticalAlign=middle;resizable=0;points=[];" vertex="1" connectable="0" parent="izx8GVxZOJIWfwjTcyak-6">
          <mxGeometry x="-0.1083" relative="1" as="geometry">
            <mxPoint as="offset" />
          </mxGeometry>
        </mxCell>
        <mxCell id="-wt2-x-dtzgsuEaeFiSR-9" value="" style="rhombus;whiteSpace=wrap;html=1;" vertex="1" parent="-wt2-x-dtzgsuEaeFiSR-1">
          <mxGeometry x="145" y="202" width="30" height="30" as="geometry" />
        </mxCell>
        <mxCell id="-wt2-x-dtzgsuEaeFiSR-10" value="" style="endArrow=open;strokeColor=#000000;endFill=1;rounded=0;entryX=0.5;entryY=0;entryDx=0;entryDy=0;" edge="1" parent="-wt2-x-dtzgsuEaeFiSR-1" source="-wt2-x-dtzgsuEaeFiSR-4" target="-wt2-x-dtzgsuEaeFiSR-9">
          <mxGeometry relative="1" as="geometry" />
        </mxCell>
        <mxCell id="izx8GVxZOJIWfwjTcyak-1" value="" style="ellipse;shape=endState;fillColor=#000000;strokeColor=#ff0000" vertex="1" parent="-wt2-x-dtzgsuEaeFiSR-1">
          <mxGeometry x="30" y="150" width="30" height="30" as="geometry" />
        </mxCell>
        <mxCell id="izx8GVxZOJIWfwjTcyak-12" style="edgeStyle=orthogonalEdgeStyle;rounded=0;orthogonalLoop=1;jettySize=auto;html=1;entryX=1;entryY=0.5;entryDx=0;entryDy=0;" edge="1" parent="-wt2-x-dtzgsuEaeFiSR-1" source="izx8GVxZOJIWfwjTcyak-14" target="izx8GVxZOJIWfwjTcyak-11">
          <mxGeometry relative="1" as="geometry">
            <mxPoint x="260" y="295" as="targetPoint" />
          </mxGeometry>
        </mxCell>
        <mxCell id="izx8GVxZOJIWfwjTcyak-28" style="edgeStyle=orthogonalEdgeStyle;rounded=0;orthogonalLoop=1;jettySize=auto;html=1;" edge="1" parent="-wt2-x-dtzgsuEaeFiSR-1" source="izx8GVxZOJIWfwjTcyak-5" target="izx8GVxZOJIWfwjTcyak-14">
          <mxGeometry relative="1" as="geometry" />
        </mxCell>
        <mxCell id="izx8GVxZOJIWfwjTcyak-5" value="select book" style="" vertex="1" parent="-wt2-x-dtzgsuEaeFiSR-1">
          <mxGeometry x="270" y="197" width="100" height="40" as="geometry" />
        </mxCell>
        <mxCell id="izx8GVxZOJIWfwjTcyak-8" value="" style="ellipse;shape=endState;fillColor=#000000;strokeColor=#ff0000" vertex="1" parent="-wt2-x-dtzgsuEaeFiSR-1">
          <mxGeometry x="370" y="360" width="30" height="30" as="geometry" />
        </mxCell>
        <mxCell id="izx8GVxZOJIWfwjTcyak-30" style="edgeStyle=orthogonalEdgeStyle;rounded=0;orthogonalLoop=1;jettySize=auto;html=1;" edge="1" parent="-wt2-x-dtzgsuEaeFiSR-1" source="izx8GVxZOJIWfwjTcyak-11" target="izx8GVxZOJIWfwjTcyak-20">
          <mxGeometry relative="1" as="geometry" />
        </mxCell>
        <mxCell id="izx8GVxZOJIWfwjTcyak-11" value="select info &#xa;to update" style="" vertex="1" parent="-wt2-x-dtzgsuEaeFiSR-1">
          <mxGeometry x="140" y="275" width="100" height="40" as="geometry" />
        </mxCell>
        <mxCell id="izx8GVxZOJIWfwjTcyak-14" value="" style="rhombus;whiteSpace=wrap;html=1;" vertex="1" parent="-wt2-x-dtzgsuEaeFiSR-1">
          <mxGeometry x="305" y="280" width="30" height="30" as="geometry" />
        </mxCell>
        <mxCell id="izx8GVxZOJIWfwjTcyak-17" style="edgeStyle=orthogonalEdgeStyle;rounded=0;orthogonalLoop=1;jettySize=auto;html=1;exitX=1;exitY=0.5;exitDx=0;exitDy=0;" edge="1" parent="-wt2-x-dtzgsuEaeFiSR-1" source="izx8GVxZOJIWfwjTcyak-14" target="izx8GVxZOJIWfwjTcyak-8">
          <mxGeometry relative="1" as="geometry">
            <mxPoint x="175" y="385" as="sourcePoint" />
            <mxPoint x="245" y="385" as="targetPoint" />
          </mxGeometry>
        </mxCell>
        <mxCell id="izx8GVxZOJIWfwjTcyak-18" value="[&#39;esc&#39;]" style="edgeLabel;html=1;align=center;verticalAlign=middle;resizable=0;points=[];" vertex="1" connectable="0" parent="izx8GVxZOJIWfwjTcyak-17">
          <mxGeometry x="-0.04" relative="1" as="geometry">
            <mxPoint as="offset" />
          </mxGeometry>
        </mxCell>
        <mxCell id="izx8GVxZOJIWfwjTcyak-26" style="edgeStyle=orthogonalEdgeStyle;rounded=0;orthogonalLoop=1;jettySize=auto;html=1;" edge="1" parent="-wt2-x-dtzgsuEaeFiSR-1" source="izx8GVxZOJIWfwjTcyak-20" target="izx8GVxZOJIWfwjTcyak-25">
          <mxGeometry relative="1" as="geometry" />
        </mxCell>
        <mxCell id="izx8GVxZOJIWfwjTcyak-20" value="" style="rhombus;whiteSpace=wrap;html=1;" vertex="1" parent="-wt2-x-dtzgsuEaeFiSR-1">
          <mxGeometry x="175" y="360" width="30" height="30" as="geometry" />
        </mxCell>
        <mxCell id="izx8GVxZOJIWfwjTcyak-21" style="edgeStyle=orthogonalEdgeStyle;rounded=0;orthogonalLoop=1;jettySize=auto;html=1;exitX=1;exitY=0.5;exitDx=0;exitDy=0;" edge="1" parent="-wt2-x-dtzgsuEaeFiSR-1" target="izx8GVxZOJIWfwjTcyak-8" source="izx8GVxZOJIWfwjTcyak-20">
          <mxGeometry relative="1" as="geometry">
            <mxPoint x="175" y="515" as="sourcePoint" />
            <mxPoint x="250" y="515" as="targetPoint" />
          </mxGeometry>
        </mxCell>
        <mxCell id="izx8GVxZOJIWfwjTcyak-22" value="[&#39;exit&#39;]" style="edgeLabel;html=1;align=center;verticalAlign=middle;resizable=0;points=[];" vertex="1" connectable="0" parent="izx8GVxZOJIWfwjTcyak-21">
          <mxGeometry x="-0.04" relative="1" as="geometry">
            <mxPoint as="offset" />
          </mxGeometry>
        </mxCell>
        <mxCell id="izx8GVxZOJIWfwjTcyak-32" style="edgeStyle=orthogonalEdgeStyle;rounded=0;orthogonalLoop=1;jettySize=auto;html=1;" edge="1" parent="-wt2-x-dtzgsuEaeFiSR-1" source="izx8GVxZOJIWfwjTcyak-25" target="izx8GVxZOJIWfwjTcyak-31">
          <mxGeometry relative="1" as="geometry" />
        </mxCell>
        <mxCell id="izx8GVxZOJIWfwjTcyak-25" value="input new info" style="" vertex="1" parent="-wt2-x-dtzgsuEaeFiSR-1">
          <mxGeometry x="140" y="430" width="100" height="40" as="geometry" />
        </mxCell>
        <mxCell id="izx8GVxZOJIWfwjTcyak-35" style="edgeStyle=orthogonalEdgeStyle;rounded=0;orthogonalLoop=1;jettySize=auto;html=1;entryX=0;entryY=0.5;entryDx=0;entryDy=0;" edge="1" parent="-wt2-x-dtzgsuEaeFiSR-1" source="izx8GVxZOJIWfwjTcyak-31" target="izx8GVxZOJIWfwjTcyak-25">
          <mxGeometry relative="1" as="geometry">
            <Array as="points">
              <mxPoint x="120" y="515" />
              <mxPoint x="120" y="450" />
            </Array>
          </mxGeometry>
        </mxCell>
        <mxCell id="izx8GVxZOJIWfwjTcyak-36" value="[invalid]" style="edgeLabel;html=1;align=center;verticalAlign=middle;resizable=0;points=[];" vertex="1" connectable="0" parent="izx8GVxZOJIWfwjTcyak-35">
          <mxGeometry x="-0.4543" y="2" relative="1" as="geometry">
            <mxPoint as="offset" />
          </mxGeometry>
        </mxCell>
        <mxCell id="izx8GVxZOJIWfwjTcyak-38" style="edgeStyle=orthogonalEdgeStyle;rounded=0;orthogonalLoop=1;jettySize=auto;html=1;" edge="1" parent="-wt2-x-dtzgsuEaeFiSR-1" source="izx8GVxZOJIWfwjTcyak-31" target="izx8GVxZOJIWfwjTcyak-37">
          <mxGeometry relative="1" as="geometry" />
        </mxCell>
        <mxCell id="izx8GVxZOJIWfwjTcyak-31" value="" style="rhombus;whiteSpace=wrap;html=1;" vertex="1" parent="-wt2-x-dtzgsuEaeFiSR-1">
          <mxGeometry x="175" y="500" width="30" height="30" as="geometry" />
        </mxCell>
        <mxCell id="izx8GVxZOJIWfwjTcyak-39" style="edgeStyle=orthogonalEdgeStyle;rounded=0;orthogonalLoop=1;jettySize=auto;html=1;entryX=0;entryY=0.5;entryDx=0;entryDy=0;" edge="1" parent="-wt2-x-dtzgsuEaeFiSR-1" source="izx8GVxZOJIWfwjTcyak-37" target="izx8GVxZOJIWfwjTcyak-40">
          <mxGeometry relative="1" as="geometry">
            <mxPoint x="360" y="515" as="targetPoint" />
            <Array as="points">
              <mxPoint x="340" y="515" />
              <mxPoint x="340" y="516" />
              <mxPoint x="335" y="516" />
            </Array>
          </mxGeometry>
        </mxCell>
        <mxCell id="izx8GVxZOJIWfwjTcyak-42" value="[y]" style="edgeLabel;html=1;align=center;verticalAlign=middle;resizable=0;points=[];" vertex="1" connectable="0" parent="izx8GVxZOJIWfwjTcyak-39">
          <mxGeometry x="-0.3754" y="2" relative="1" as="geometry">
            <mxPoint as="offset" />
          </mxGeometry>
        </mxCell>
        <mxCell id="izx8GVxZOJIWfwjTcyak-43" style="edgeStyle=orthogonalEdgeStyle;rounded=0;orthogonalLoop=1;jettySize=auto;html=1;" edge="1" parent="-wt2-x-dtzgsuEaeFiSR-1" source="izx8GVxZOJIWfwjTcyak-37" target="izx8GVxZOJIWfwjTcyak-44">
          <mxGeometry relative="1" as="geometry">
            <mxPoint x="275" y="580" as="targetPoint" />
          </mxGeometry>
        </mxCell>
        <mxCell id="izx8GVxZOJIWfwjTcyak-45" value="[n]" style="edgeLabel;html=1;align=center;verticalAlign=middle;resizable=0;points=[];" vertex="1" connectable="0" parent="izx8GVxZOJIWfwjTcyak-43">
          <mxGeometry x="0.2178" relative="1" as="geometry">
            <mxPoint as="offset" />
          </mxGeometry>
        </mxCell>
        <mxCell id="izx8GVxZOJIWfwjTcyak-37" value="confirm" style="rhombus;whiteSpace=wrap;html=1;" vertex="1" parent="-wt2-x-dtzgsuEaeFiSR-1">
          <mxGeometry x="245" y="485" width="60" height="60" as="geometry" />
        </mxCell>
        <mxCell id="izx8GVxZOJIWfwjTcyak-46" style="edgeStyle=orthogonalEdgeStyle;rounded=0;orthogonalLoop=1;jettySize=auto;html=1;entryX=1;entryY=0.5;entryDx=0;entryDy=0;" edge="1" parent="-wt2-x-dtzgsuEaeFiSR-1" source="izx8GVxZOJIWfwjTcyak-40" target="izx8GVxZOJIWfwjTcyak-44">
          <mxGeometry relative="1" as="geometry">
            <Array as="points">
              <mxPoint x="400" y="595" />
            </Array>
          </mxGeometry>
        </mxCell>
        <mxCell id="izx8GVxZOJIWfwjTcyak-40" value="update info" style="" vertex="1" parent="-wt2-x-dtzgsuEaeFiSR-1">
          <mxGeometry x="350" y="495" width="100" height="40" as="geometry" />
        </mxCell>
        <mxCell id="izx8GVxZOJIWfwjTcyak-44" value="" style="ellipse;shape=endState;fillColor=#000000;strokeColor=#ff0000" vertex="1" parent="-wt2-x-dtzgsuEaeFiSR-1">
          <mxGeometry x="260" y="580" width="30" height="30" as="geometry" />
        </mxCell>
      </root>
    </mxGraphModel>
  </diagram>
  <diagram id="ws1k7n2DeVnK79GMdsGG" name="Deactivate user">
    <mxGraphModel dx="1226" dy="679" grid="1" gridSize="10" guides="1" tooltips="1" connect="1" arrows="1" fold="1" page="1" pageScale="1" pageWidth="850" pageHeight="1100" math="0" shadow="0">
      <root>
        <mxCell id="0" />
        <mxCell id="1" parent="0" />
        <mxCell id="psF5VTlN-x7UnyMCcZ6P-1" value="Deactivate user" style="swimlane;whiteSpace=wrap" vertex="1" parent="1">
          <mxGeometry x="225" y="70" width="385" height="550" as="geometry" />
        </mxCell>
        <mxCell id="psF5VTlN-x7UnyMCcZ6P-2" value="" style="ellipse;shape=startState;fillColor=#000000;strokeColor=#ff0000;" vertex="1" parent="psF5VTlN-x7UnyMCcZ6P-1">
          <mxGeometry x="90" y="52" width="30" height="30" as="geometry" />
        </mxCell>
        <mxCell id="psF5VTlN-x7UnyMCcZ6P-3" value="" style="edgeStyle=elbowEdgeStyle;elbow=horizontal;verticalAlign=bottom;endArrow=open;endSize=8;strokeColor=#FF0000;endFill=1;rounded=0" edge="1" parent="psF5VTlN-x7UnyMCcZ6P-1" source="psF5VTlN-x7UnyMCcZ6P-2" target="psF5VTlN-x7UnyMCcZ6P-4">
          <mxGeometry x="100" y="40" as="geometry">
            <mxPoint x="105" y="122" as="targetPoint" />
          </mxGeometry>
        </mxCell>
        <mxCell id="psF5VTlN-x7UnyMCcZ6P-4" value="input user&#39;s name" style="" vertex="1" parent="psF5VTlN-x7UnyMCcZ6P-1">
          <mxGeometry x="50" y="122" width="110" height="50" as="geometry" />
        </mxCell>
        <mxCell id="psF5VTlN-x7UnyMCcZ6P-5" style="edgeStyle=orthogonalEdgeStyle;rounded=0;orthogonalLoop=1;jettySize=auto;html=1;exitX=1;exitY=0.5;exitDx=0;exitDy=0;entryX=0;entryY=0.5;entryDx=0;entryDy=0;" edge="1" parent="psF5VTlN-x7UnyMCcZ6P-1" source="psF5VTlN-x7UnyMCcZ6P-9" target="psF5VTlN-x7UnyMCcZ6P-11">
          <mxGeometry relative="1" as="geometry" />
        </mxCell>
        <mxCell id="psF5VTlN-x7UnyMCcZ6P-6" value="[user not exist]" style="edgeLabel;html=1;align=center;verticalAlign=middle;resizable=0;points=[];" vertex="1" connectable="0" parent="psF5VTlN-x7UnyMCcZ6P-5">
          <mxGeometry x="0.072" y="-2" relative="1" as="geometry">
            <mxPoint as="offset" />
          </mxGeometry>
        </mxCell>
        <mxCell id="psF5VTlN-x7UnyMCcZ6P-7" style="edgeStyle=orthogonalEdgeStyle;rounded=0;orthogonalLoop=1;jettySize=auto;html=1;exitX=0.5;exitY=1;exitDx=0;exitDy=0;" edge="1" parent="psF5VTlN-x7UnyMCcZ6P-1" source="psF5VTlN-x7UnyMCcZ6P-9" target="psF5VTlN-x7UnyMCcZ6P-15">
          <mxGeometry relative="1" as="geometry">
            <mxPoint x="105" y="315" as="targetPoint" />
          </mxGeometry>
        </mxCell>
        <mxCell id="psF5VTlN-x7UnyMCcZ6P-8" value="[user exist]" style="edgeLabel;html=1;align=center;verticalAlign=middle;resizable=0;points=[];" vertex="1" connectable="0" parent="psF5VTlN-x7UnyMCcZ6P-7">
          <mxGeometry x="0.18" y="2" relative="1" as="geometry">
            <mxPoint as="offset" />
          </mxGeometry>
        </mxCell>
        <mxCell id="psF5VTlN-x7UnyMCcZ6P-9" value="" style="rhombus;whiteSpace=wrap;html=1;" vertex="1" parent="psF5VTlN-x7UnyMCcZ6P-1">
          <mxGeometry x="90" y="202" width="30" height="30" as="geometry" />
        </mxCell>
        <mxCell id="psF5VTlN-x7UnyMCcZ6P-10" value="" style="endArrow=open;strokeColor=#000000;endFill=1;rounded=0;entryX=0.5;entryY=0;entryDx=0;entryDy=0;" edge="1" parent="psF5VTlN-x7UnyMCcZ6P-1" source="psF5VTlN-x7UnyMCcZ6P-4" target="psF5VTlN-x7UnyMCcZ6P-9">
          <mxGeometry relative="1" as="geometry" />
        </mxCell>
        <mxCell id="psF5VTlN-x7UnyMCcZ6P-31" style="edgeStyle=orthogonalEdgeStyle;rounded=0;orthogonalLoop=1;jettySize=auto;html=1;" edge="1" parent="psF5VTlN-x7UnyMCcZ6P-1" source="psF5VTlN-x7UnyMCcZ6P-11" target="psF5VTlN-x7UnyMCcZ6P-12">
          <mxGeometry relative="1" as="geometry" />
        </mxCell>
        <mxCell id="psF5VTlN-x7UnyMCcZ6P-11" value="display &#xa;&quot;no user found&quot;" style="" vertex="1" parent="psF5VTlN-x7UnyMCcZ6P-1">
          <mxGeometry x="260" y="192" width="110" height="50" as="geometry" />
        </mxCell>
        <mxCell id="psF5VTlN-x7UnyMCcZ6P-12" value="" style="ellipse;shape=endState;fillColor=#000000;strokeColor=#ff0000" vertex="1" parent="psF5VTlN-x7UnyMCcZ6P-1">
          <mxGeometry x="300" y="385" width="30" height="30" as="geometry" />
        </mxCell>
        <mxCell id="psF5VTlN-x7UnyMCcZ6P-24" style="edgeStyle=orthogonalEdgeStyle;rounded=0;orthogonalLoop=1;jettySize=auto;html=1;" edge="1" parent="psF5VTlN-x7UnyMCcZ6P-1" source="psF5VTlN-x7UnyMCcZ6P-15" target="psF5VTlN-x7UnyMCcZ6P-23">
          <mxGeometry relative="1" as="geometry" />
        </mxCell>
        <mxCell id="psF5VTlN-x7UnyMCcZ6P-15" value="select user" style="" vertex="1" parent="psF5VTlN-x7UnyMCcZ6P-1">
          <mxGeometry x="50" y="280" width="110" height="50" as="geometry" />
        </mxCell>
        <mxCell id="psF5VTlN-x7UnyMCcZ6P-26" style="edgeStyle=orthogonalEdgeStyle;rounded=0;orthogonalLoop=1;jettySize=auto;html=1;" edge="1" parent="psF5VTlN-x7UnyMCcZ6P-1" source="psF5VTlN-x7UnyMCcZ6P-23" target="psF5VTlN-x7UnyMCcZ6P-25">
          <mxGeometry relative="1" as="geometry" />
        </mxCell>
        <mxCell id="psF5VTlN-x7UnyMCcZ6P-27" value="[y]" style="edgeLabel;html=1;align=center;verticalAlign=middle;resizable=0;points=[];" vertex="1" connectable="0" parent="psF5VTlN-x7UnyMCcZ6P-26">
          <mxGeometry x="-0.0333" y="-2" relative="1" as="geometry">
            <mxPoint as="offset" />
          </mxGeometry>
        </mxCell>
        <mxCell id="psF5VTlN-x7UnyMCcZ6P-28" style="edgeStyle=orthogonalEdgeStyle;rounded=0;orthogonalLoop=1;jettySize=auto;html=1;" edge="1" parent="psF5VTlN-x7UnyMCcZ6P-1" source="psF5VTlN-x7UnyMCcZ6P-23" target="psF5VTlN-x7UnyMCcZ6P-12">
          <mxGeometry relative="1" as="geometry" />
        </mxCell>
        <mxCell id="psF5VTlN-x7UnyMCcZ6P-29" value="[n]" style="edgeLabel;html=1;align=center;verticalAlign=middle;resizable=0;points=[];" vertex="1" connectable="0" parent="psF5VTlN-x7UnyMCcZ6P-28">
          <mxGeometry x="-0.1022" y="-1" relative="1" as="geometry">
            <mxPoint as="offset" />
          </mxGeometry>
        </mxCell>
        <mxCell id="psF5VTlN-x7UnyMCcZ6P-23" value="confirm" style="rhombus;whiteSpace=wrap;html=1;" vertex="1" parent="psF5VTlN-x7UnyMCcZ6P-1">
          <mxGeometry x="75" y="370" width="60" height="60" as="geometry" />
        </mxCell>
        <mxCell id="psF5VTlN-x7UnyMCcZ6P-30" style="edgeStyle=orthogonalEdgeStyle;rounded=0;orthogonalLoop=1;jettySize=auto;html=1;" edge="1" parent="psF5VTlN-x7UnyMCcZ6P-1" source="psF5VTlN-x7UnyMCcZ6P-25" target="psF5VTlN-x7UnyMCcZ6P-12">
          <mxGeometry relative="1" as="geometry" />
        </mxCell>
        <mxCell id="psF5VTlN-x7UnyMCcZ6P-25" value="set user status = 0" style="" vertex="1" parent="psF5VTlN-x7UnyMCcZ6P-1">
          <mxGeometry x="50" y="470" width="110" height="50" as="geometry" />
        </mxCell>
      </root>
    </mxGraphModel>
  </diagram>
  <diagram id="tY7g2s3GH2heur0GufxR" name="Update account info">
    <mxGraphModel dx="1226" dy="679" grid="1" gridSize="10" guides="1" tooltips="1" connect="1" arrows="1" fold="1" page="1" pageScale="1" pageWidth="850" pageHeight="1100" math="0" shadow="0">
      <root>
        <mxCell id="0" />
        <mxCell id="1" parent="0" />
        <mxCell id="cz1L6NBDnC1mk5Ad8r7z-1" value="Update Account Info" style="swimlane;whiteSpace=wrap" vertex="1" parent="1">
          <mxGeometry x="220" y="260" width="360" height="502" as="geometry" />
        </mxCell>
        <mxCell id="cz1L6NBDnC1mk5Ad8r7z-2" value="" style="ellipse;shape=startState;fillColor=#000000;strokeColor=#ff0000;" vertex="1" parent="cz1L6NBDnC1mk5Ad8r7z-1">
          <mxGeometry x="90" y="52" width="30" height="30" as="geometry" />
        </mxCell>
        <mxCell id="cz1L6NBDnC1mk5Ad8r7z-3" value="" style="edgeStyle=elbowEdgeStyle;elbow=horizontal;verticalAlign=bottom;endArrow=open;endSize=8;strokeColor=#FF0000;endFill=1;rounded=0" edge="1" parent="cz1L6NBDnC1mk5Ad8r7z-1" source="cz1L6NBDnC1mk5Ad8r7z-2" target="cz1L6NBDnC1mk5Ad8r7z-4">
          <mxGeometry x="100" y="40" as="geometry">
            <mxPoint x="105" y="122" as="targetPoint" />
          </mxGeometry>
        </mxCell>
        <mxCell id="cz1L6NBDnC1mk5Ad8r7z-4" value="select info &#xa;to update" style="" vertex="1" parent="cz1L6NBDnC1mk5Ad8r7z-1">
          <mxGeometry x="50" y="122" width="110" height="50" as="geometry" />
        </mxCell>
        <mxCell id="cz1L6NBDnC1mk5Ad8r7z-5" style="edgeStyle=orthogonalEdgeStyle;rounded=0;orthogonalLoop=1;jettySize=auto;html=1;exitX=1;exitY=0.5;exitDx=0;exitDy=0;" edge="1" parent="cz1L6NBDnC1mk5Ad8r7z-1" source="cz1L6NBDnC1mk5Ad8r7z-9" target="cz1L6NBDnC1mk5Ad8r7z-16">
          <mxGeometry relative="1" as="geometry">
            <mxPoint x="215" y="152" as="targetPoint" />
          </mxGeometry>
        </mxCell>
        <mxCell id="cz1L6NBDnC1mk5Ad8r7z-6" value="[&#39;exit&#39;]" style="edgeLabel;html=1;align=center;verticalAlign=middle;resizable=0;points=[];" vertex="1" connectable="0" parent="cz1L6NBDnC1mk5Ad8r7z-5">
          <mxGeometry x="0.072" y="-2" relative="1" as="geometry">
            <mxPoint as="offset" />
          </mxGeometry>
        </mxCell>
        <mxCell id="cz1L6NBDnC1mk5Ad8r7z-23" style="edgeStyle=orthogonalEdgeStyle;rounded=0;orthogonalLoop=1;jettySize=auto;html=1;" edge="1" parent="cz1L6NBDnC1mk5Ad8r7z-1" source="cz1L6NBDnC1mk5Ad8r7z-9" target="cz1L6NBDnC1mk5Ad8r7z-15">
          <mxGeometry relative="1" as="geometry" />
        </mxCell>
        <mxCell id="cz1L6NBDnC1mk5Ad8r7z-9" value="" style="rhombus;whiteSpace=wrap;html=1;" vertex="1" parent="cz1L6NBDnC1mk5Ad8r7z-1">
          <mxGeometry x="90" y="202" width="30" height="30" as="geometry" />
        </mxCell>
        <mxCell id="cz1L6NBDnC1mk5Ad8r7z-10" value="" style="endArrow=open;strokeColor=#000000;endFill=1;rounded=0;entryX=0.5;entryY=0;entryDx=0;entryDy=0;" edge="1" parent="cz1L6NBDnC1mk5Ad8r7z-1" source="cz1L6NBDnC1mk5Ad8r7z-4" target="cz1L6NBDnC1mk5Ad8r7z-9">
          <mxGeometry relative="1" as="geometry" />
        </mxCell>
        <mxCell id="cz1L6NBDnC1mk5Ad8r7z-25" style="edgeStyle=orthogonalEdgeStyle;rounded=0;orthogonalLoop=1;jettySize=auto;html=1;" edge="1" parent="cz1L6NBDnC1mk5Ad8r7z-1" source="cz1L6NBDnC1mk5Ad8r7z-15" target="cz1L6NBDnC1mk5Ad8r7z-24">
          <mxGeometry relative="1" as="geometry" />
        </mxCell>
        <mxCell id="cz1L6NBDnC1mk5Ad8r7z-15" value="input new info" style="" vertex="1" parent="cz1L6NBDnC1mk5Ad8r7z-1">
          <mxGeometry x="50" y="260" width="110" height="50" as="geometry" />
        </mxCell>
        <mxCell id="cz1L6NBDnC1mk5Ad8r7z-16" value="" style="ellipse;shape=endState;fillColor=#000000;strokeColor=#ff0000" vertex="1" parent="cz1L6NBDnC1mk5Ad8r7z-1">
          <mxGeometry x="310" y="340" width="30" height="30" as="geometry" />
        </mxCell>
        <mxCell id="cz1L6NBDnC1mk5Ad8r7z-31" style="edgeStyle=orthogonalEdgeStyle;rounded=0;orthogonalLoop=1;jettySize=auto;html=1;" edge="1" parent="cz1L6NBDnC1mk5Ad8r7z-1" source="cz1L6NBDnC1mk5Ad8r7z-20" target="cz1L6NBDnC1mk5Ad8r7z-30">
          <mxGeometry relative="1" as="geometry" />
        </mxCell>
        <mxCell id="cz1L6NBDnC1mk5Ad8r7z-32" value="[y]" style="edgeLabel;html=1;align=center;verticalAlign=middle;resizable=0;points=[];" vertex="1" connectable="0" parent="cz1L6NBDnC1mk5Ad8r7z-31">
          <mxGeometry x="-0.4667" y="1" relative="1" as="geometry">
            <mxPoint as="offset" />
          </mxGeometry>
        </mxCell>
        <mxCell id="cz1L6NBDnC1mk5Ad8r7z-34" style="edgeStyle=orthogonalEdgeStyle;rounded=0;orthogonalLoop=1;jettySize=auto;html=1;" edge="1" parent="cz1L6NBDnC1mk5Ad8r7z-1" source="cz1L6NBDnC1mk5Ad8r7z-20" target="cz1L6NBDnC1mk5Ad8r7z-16">
          <mxGeometry relative="1" as="geometry" />
        </mxCell>
        <mxCell id="cz1L6NBDnC1mk5Ad8r7z-35" value="[n]" style="edgeLabel;html=1;align=center;verticalAlign=middle;resizable=0;points=[];" vertex="1" connectable="0" parent="cz1L6NBDnC1mk5Ad8r7z-34">
          <mxGeometry x="-0.1754" relative="1" as="geometry">
            <mxPoint as="offset" />
          </mxGeometry>
        </mxCell>
        <mxCell id="cz1L6NBDnC1mk5Ad8r7z-20" value="confirm" style="rhombus;whiteSpace=wrap;html=1;" vertex="1" parent="cz1L6NBDnC1mk5Ad8r7z-1">
          <mxGeometry x="185" y="325" width="60" height="60" as="geometry" />
        </mxCell>
        <mxCell id="cz1L6NBDnC1mk5Ad8r7z-26" style="edgeStyle=orthogonalEdgeStyle;rounded=0;orthogonalLoop=1;jettySize=auto;html=1;entryX=0;entryY=0.5;entryDx=0;entryDy=0;" edge="1" parent="cz1L6NBDnC1mk5Ad8r7z-1" source="cz1L6NBDnC1mk5Ad8r7z-24" target="cz1L6NBDnC1mk5Ad8r7z-15">
          <mxGeometry relative="1" as="geometry">
            <Array as="points">
              <mxPoint x="30" y="355" />
              <mxPoint x="30" y="285" />
            </Array>
          </mxGeometry>
        </mxCell>
        <mxCell id="cz1L6NBDnC1mk5Ad8r7z-27" value="[invalid]" style="edgeLabel;html=1;align=center;verticalAlign=middle;resizable=0;points=[];" vertex="1" connectable="0" parent="cz1L6NBDnC1mk5Ad8r7z-26">
          <mxGeometry x="-0.464" y="-1" relative="1" as="geometry">
            <mxPoint as="offset" />
          </mxGeometry>
        </mxCell>
        <mxCell id="cz1L6NBDnC1mk5Ad8r7z-28" style="edgeStyle=orthogonalEdgeStyle;rounded=0;orthogonalLoop=1;jettySize=auto;html=1;" edge="1" parent="cz1L6NBDnC1mk5Ad8r7z-1" source="cz1L6NBDnC1mk5Ad8r7z-24" target="cz1L6NBDnC1mk5Ad8r7z-20">
          <mxGeometry relative="1" as="geometry" />
        </mxCell>
        <mxCell id="cz1L6NBDnC1mk5Ad8r7z-29" value="[valid]" style="edgeLabel;html=1;align=center;verticalAlign=middle;resizable=0;points=[];" vertex="1" connectable="0" parent="cz1L6NBDnC1mk5Ad8r7z-28">
          <mxGeometry x="-0.11" y="-1" relative="1" as="geometry">
            <mxPoint as="offset" />
          </mxGeometry>
        </mxCell>
        <mxCell id="cz1L6NBDnC1mk5Ad8r7z-24" value="" style="rhombus;whiteSpace=wrap;html=1;" vertex="1" parent="cz1L6NBDnC1mk5Ad8r7z-1">
          <mxGeometry x="90" y="340" width="30" height="30" as="geometry" />
        </mxCell>
        <mxCell id="cz1L6NBDnC1mk5Ad8r7z-36" style="edgeStyle=orthogonalEdgeStyle;rounded=0;orthogonalLoop=1;jettySize=auto;html=1;" edge="1" parent="cz1L6NBDnC1mk5Ad8r7z-1" source="cz1L6NBDnC1mk5Ad8r7z-30" target="cz1L6NBDnC1mk5Ad8r7z-16">
          <mxGeometry relative="1" as="geometry" />
        </mxCell>
        <mxCell id="cz1L6NBDnC1mk5Ad8r7z-30" value="update info" style="" vertex="1" parent="cz1L6NBDnC1mk5Ad8r7z-1">
          <mxGeometry x="160" y="420" width="110" height="50" as="geometry" />
        </mxCell>
      </root>
    </mxGraphModel>
  </diagram>
  <diagram id="qvM1Yq8LugXpJt3d_s5G" name="Create Order">
    <mxGraphModel dx="1603" dy="888" grid="1" gridSize="10" guides="1" tooltips="1" connect="1" arrows="1" fold="1" page="1" pageScale="1" pageWidth="850" pageHeight="1100" math="0" shadow="0">
      <root>
        <mxCell id="0" />
        <mxCell id="1" parent="0" />
        <mxCell id="7CGdwvpUWdOLOoQ3-cU6-1" value="Create Order" style="swimlane;whiteSpace=wrap" vertex="1" parent="1">
          <mxGeometry x="160" y="80" width="540" height="810" as="geometry" />
        </mxCell>
        <mxCell id="7CGdwvpUWdOLOoQ3-cU6-2" value="" style="ellipse;shape=startState;fillColor=#000000;strokeColor=#ff0000;" vertex="1" parent="7CGdwvpUWdOLOoQ3-cU6-1">
          <mxGeometry x="255" y="52" width="30" height="30" as="geometry" />
        </mxCell>
        <mxCell id="7CGdwvpUWdOLOoQ3-cU6-3" value="" style="edgeStyle=elbowEdgeStyle;elbow=horizontal;verticalAlign=bottom;endArrow=open;endSize=8;strokeColor=#FF0000;endFill=1;rounded=0" edge="1" parent="7CGdwvpUWdOLOoQ3-cU6-1" source="7CGdwvpUWdOLOoQ3-cU6-2" target="7CGdwvpUWdOLOoQ3-cU6-34">
          <mxGeometry x="100" y="40" as="geometry">
            <mxPoint x="270" y="125" as="targetPoint" />
            <Array as="points">
              <mxPoint x="270" y="120" />
            </Array>
          </mxGeometry>
        </mxCell>
        <mxCell id="7CGdwvpUWdOLOoQ3-cU6-4" value="input &#xa;book&#39;s name" style="" vertex="1" parent="7CGdwvpUWdOLOoQ3-cU6-1">
          <mxGeometry x="70" y="100" width="110" height="50" as="geometry" />
        </mxCell>
        <mxCell id="7CGdwvpUWdOLOoQ3-cU6-30" style="edgeStyle=orthogonalEdgeStyle;rounded=0;orthogonalLoop=1;jettySize=auto;html=1;entryX=0;entryY=0.5;entryDx=0;entryDy=0;" edge="1" parent="7CGdwvpUWdOLOoQ3-cU6-1" source="7CGdwvpUWdOLOoQ3-cU6-9" target="oYoXS9Sdqx0aGaguvP7D-6">
          <mxGeometry relative="1" as="geometry" />
        </mxCell>
        <mxCell id="7CGdwvpUWdOLOoQ3-cU6-32" value="[not exist]" style="edgeLabel;html=1;align=center;verticalAlign=middle;resizable=0;points=[];" vertex="1" connectable="0" parent="7CGdwvpUWdOLOoQ3-cU6-30">
          <mxGeometry x="-0.2054" relative="1" as="geometry">
            <mxPoint as="offset" />
          </mxGeometry>
        </mxCell>
        <mxCell id="oYoXS9Sdqx0aGaguvP7D-2" style="edgeStyle=orthogonalEdgeStyle;rounded=0;orthogonalLoop=1;jettySize=auto;html=1;entryX=0;entryY=0.5;entryDx=0;entryDy=0;" edge="1" parent="7CGdwvpUWdOLOoQ3-cU6-1" source="7CGdwvpUWdOLOoQ3-cU6-9" target="oYoXS9Sdqx0aGaguvP7D-1">
          <mxGeometry relative="1" as="geometry">
            <Array as="points">
              <mxPoint x="125" y="355" />
            </Array>
          </mxGeometry>
        </mxCell>
        <mxCell id="oYoXS9Sdqx0aGaguvP7D-5" value="[exist]" style="edgeLabel;html=1;align=center;verticalAlign=middle;resizable=0;points=[];" vertex="1" connectable="0" parent="oYoXS9Sdqx0aGaguvP7D-2">
          <mxGeometry x="-0.5898" relative="1" as="geometry">
            <mxPoint as="offset" />
          </mxGeometry>
        </mxCell>
        <mxCell id="7CGdwvpUWdOLOoQ3-cU6-9" value="" style="rhombus;whiteSpace=wrap;html=1;" vertex="1" parent="7CGdwvpUWdOLOoQ3-cU6-1">
          <mxGeometry x="110" y="190" width="30" height="30" as="geometry" />
        </mxCell>
        <mxCell id="7CGdwvpUWdOLOoQ3-cU6-10" value="" style="endArrow=open;strokeColor=#000000;endFill=1;rounded=0;entryX=0.5;entryY=0;entryDx=0;entryDy=0;" edge="1" parent="7CGdwvpUWdOLOoQ3-cU6-1" source="7CGdwvpUWdOLOoQ3-cU6-4" target="7CGdwvpUWdOLOoQ3-cU6-9">
          <mxGeometry relative="1" as="geometry" />
        </mxCell>
        <mxCell id="7CGdwvpUWdOLOoQ3-cU6-16" value="" style="ellipse;shape=endState;fillColor=#000000;strokeColor=#ff0000" vertex="1" parent="7CGdwvpUWdOLOoQ3-cU6-1">
          <mxGeometry x="255" y="260" width="30" height="30" as="geometry" />
        </mxCell>
        <mxCell id="7CGdwvpUWdOLOoQ3-cU6-17" value="" style="ellipse;shape=endState;fillColor=#000000;strokeColor=#ff0000" vertex="1" parent="7CGdwvpUWdOLOoQ3-cU6-1">
          <mxGeometry x="390" y="650" width="30" height="30" as="geometry" />
        </mxCell>
        <mxCell id="7CGdwvpUWdOLOoQ3-cU6-29" style="edgeStyle=orthogonalEdgeStyle;rounded=0;orthogonalLoop=1;jettySize=auto;html=1;" edge="1" parent="7CGdwvpUWdOLOoQ3-cU6-1" source="7CGdwvpUWdOLOoQ3-cU6-26" target="7CGdwvpUWdOLOoQ3-cU6-28">
          <mxGeometry relative="1" as="geometry" />
        </mxCell>
        <mxCell id="7CGdwvpUWdOLOoQ3-cU6-26" value="input &#xa;book&#39;s category" style="" vertex="1" parent="7CGdwvpUWdOLOoQ3-cU6-1">
          <mxGeometry x="360" y="100" width="110" height="50" as="geometry" />
        </mxCell>
        <mxCell id="7CGdwvpUWdOLOoQ3-cU6-31" style="edgeStyle=orthogonalEdgeStyle;rounded=0;orthogonalLoop=1;jettySize=auto;html=1;entryX=1;entryY=0.5;entryDx=0;entryDy=0;" edge="1" parent="7CGdwvpUWdOLOoQ3-cU6-1" source="7CGdwvpUWdOLOoQ3-cU6-28" target="oYoXS9Sdqx0aGaguvP7D-6">
          <mxGeometry relative="1" as="geometry" />
        </mxCell>
        <mxCell id="7CGdwvpUWdOLOoQ3-cU6-33" value="[not exist]" style="edgeLabel;html=1;align=center;verticalAlign=middle;resizable=0;points=[];" vertex="1" connectable="0" parent="7CGdwvpUWdOLOoQ3-cU6-31">
          <mxGeometry x="-0.0578" relative="1" as="geometry">
            <mxPoint as="offset" />
          </mxGeometry>
        </mxCell>
        <mxCell id="oYoXS9Sdqx0aGaguvP7D-3" style="edgeStyle=orthogonalEdgeStyle;rounded=0;orthogonalLoop=1;jettySize=auto;html=1;entryX=1;entryY=0.5;entryDx=0;entryDy=0;" edge="1" parent="7CGdwvpUWdOLOoQ3-cU6-1" source="7CGdwvpUWdOLOoQ3-cU6-28" target="oYoXS9Sdqx0aGaguvP7D-1">
          <mxGeometry relative="1" as="geometry">
            <Array as="points">
              <mxPoint x="415" y="355" />
            </Array>
          </mxGeometry>
        </mxCell>
        <mxCell id="oYoXS9Sdqx0aGaguvP7D-4" value="[exist]" style="edgeLabel;html=1;align=center;verticalAlign=middle;resizable=0;points=[];" vertex="1" connectable="0" parent="oYoXS9Sdqx0aGaguvP7D-3">
          <mxGeometry x="-0.6214" relative="1" as="geometry">
            <mxPoint as="offset" />
          </mxGeometry>
        </mxCell>
        <mxCell id="7CGdwvpUWdOLOoQ3-cU6-28" value="" style="rhombus;whiteSpace=wrap;html=1;" vertex="1" parent="7CGdwvpUWdOLOoQ3-cU6-1">
          <mxGeometry x="400" y="190" width="30" height="30" as="geometry" />
        </mxCell>
        <mxCell id="7CGdwvpUWdOLOoQ3-cU6-35" style="edgeStyle=orthogonalEdgeStyle;rounded=0;orthogonalLoop=1;jettySize=auto;html=1;" edge="1" parent="7CGdwvpUWdOLOoQ3-cU6-1" source="7CGdwvpUWdOLOoQ3-cU6-34" target="7CGdwvpUWdOLOoQ3-cU6-4">
          <mxGeometry relative="1" as="geometry" />
        </mxCell>
        <mxCell id="7CGdwvpUWdOLOoQ3-cU6-36" style="edgeStyle=orthogonalEdgeStyle;rounded=0;orthogonalLoop=1;jettySize=auto;html=1;entryX=0;entryY=0.5;entryDx=0;entryDy=0;" edge="1" parent="7CGdwvpUWdOLOoQ3-cU6-1" source="7CGdwvpUWdOLOoQ3-cU6-34" target="7CGdwvpUWdOLOoQ3-cU6-26">
          <mxGeometry relative="1" as="geometry" />
        </mxCell>
        <mxCell id="7CGdwvpUWdOLOoQ3-cU6-34" value="" style="rhombus;whiteSpace=wrap;html=1;" vertex="1" parent="7CGdwvpUWdOLOoQ3-cU6-1">
          <mxGeometry x="255" y="110" width="30" height="30" as="geometry" />
        </mxCell>
        <mxCell id="oYoXS9Sdqx0aGaguvP7D-9" style="edgeStyle=orthogonalEdgeStyle;rounded=0;orthogonalLoop=1;jettySize=auto;html=1;" edge="1" parent="7CGdwvpUWdOLOoQ3-cU6-1" source="oYoXS9Sdqx0aGaguvP7D-1" target="oYoXS9Sdqx0aGaguvP7D-8">
          <mxGeometry relative="1" as="geometry" />
        </mxCell>
        <mxCell id="oYoXS9Sdqx0aGaguvP7D-1" value="display &#xa;books list" style="" vertex="1" parent="7CGdwvpUWdOLOoQ3-cU6-1">
          <mxGeometry x="215" y="330" width="110" height="50" as="geometry" />
        </mxCell>
        <mxCell id="oYoXS9Sdqx0aGaguvP7D-7" style="edgeStyle=orthogonalEdgeStyle;rounded=0;orthogonalLoop=1;jettySize=auto;html=1;" edge="1" parent="7CGdwvpUWdOLOoQ3-cU6-1" source="oYoXS9Sdqx0aGaguvP7D-6" target="7CGdwvpUWdOLOoQ3-cU6-16">
          <mxGeometry relative="1" as="geometry" />
        </mxCell>
        <mxCell id="oYoXS9Sdqx0aGaguvP7D-6" value="display &#xa;&quot;No book found&quot;" style="" vertex="1" parent="7CGdwvpUWdOLOoQ3-cU6-1">
          <mxGeometry x="215" y="180" width="110" height="50" as="geometry" />
        </mxCell>
        <mxCell id="oYoXS9Sdqx0aGaguvP7D-11" style="edgeStyle=orthogonalEdgeStyle;rounded=0;orthogonalLoop=1;jettySize=auto;html=1;" edge="1" parent="7CGdwvpUWdOLOoQ3-cU6-1" source="oYoXS9Sdqx0aGaguvP7D-8" target="oYoXS9Sdqx0aGaguvP7D-10">
          <mxGeometry relative="1" as="geometry" />
        </mxCell>
        <mxCell id="oYoXS9Sdqx0aGaguvP7D-8" value="select book" style="" vertex="1" parent="7CGdwvpUWdOLOoQ3-cU6-1">
          <mxGeometry x="215" y="420" width="110" height="50" as="geometry" />
        </mxCell>
        <mxCell id="oYoXS9Sdqx0aGaguvP7D-13" style="edgeStyle=orthogonalEdgeStyle;rounded=0;orthogonalLoop=1;jettySize=auto;html=1;" edge="1" parent="7CGdwvpUWdOLOoQ3-cU6-1" source="oYoXS9Sdqx0aGaguvP7D-10" target="oYoXS9Sdqx0aGaguvP7D-12">
          <mxGeometry relative="1" as="geometry" />
        </mxCell>
        <mxCell id="oYoXS9Sdqx0aGaguvP7D-10" value="input quantity" style="" vertex="1" parent="7CGdwvpUWdOLOoQ3-cU6-1">
          <mxGeometry x="215" y="510" width="110" height="50" as="geometry" />
        </mxCell>
        <mxCell id="oYoXS9Sdqx0aGaguvP7D-14" style="edgeStyle=orthogonalEdgeStyle;rounded=0;orthogonalLoop=1;jettySize=auto;html=1;entryX=0;entryY=0.5;entryDx=0;entryDy=0;" edge="1" parent="7CGdwvpUWdOLOoQ3-cU6-1" source="oYoXS9Sdqx0aGaguvP7D-12" target="oYoXS9Sdqx0aGaguvP7D-10">
          <mxGeometry relative="1" as="geometry">
            <Array as="points">
              <mxPoint x="195" y="605" />
              <mxPoint x="195" y="535" />
            </Array>
          </mxGeometry>
        </mxCell>
        <mxCell id="oYoXS9Sdqx0aGaguvP7D-15" value="[invalid]" style="edgeLabel;html=1;align=center;verticalAlign=middle;resizable=0;points=[];" vertex="1" connectable="0" parent="oYoXS9Sdqx0aGaguvP7D-14">
          <mxGeometry x="-0.4787" relative="1" as="geometry">
            <mxPoint as="offset" />
          </mxGeometry>
        </mxCell>
        <mxCell id="oYoXS9Sdqx0aGaguvP7D-16" style="edgeStyle=orthogonalEdgeStyle;rounded=0;orthogonalLoop=1;jettySize=auto;html=1;" edge="1" parent="7CGdwvpUWdOLOoQ3-cU6-1" source="oYoXS9Sdqx0aGaguvP7D-12" target="7CGdwvpUWdOLOoQ3-cU6-17">
          <mxGeometry relative="1" as="geometry" />
        </mxCell>
        <mxCell id="oYoXS9Sdqx0aGaguvP7D-17" value="[quantity = 0]" style="edgeLabel;html=1;align=center;verticalAlign=middle;resizable=0;points=[];" vertex="1" connectable="0" parent="oYoXS9Sdqx0aGaguvP7D-16">
          <mxGeometry x="-0.0799" relative="1" as="geometry">
            <mxPoint as="offset" />
          </mxGeometry>
        </mxCell>
        <mxCell id="oYoXS9Sdqx0aGaguvP7D-20" style="edgeStyle=orthogonalEdgeStyle;rounded=0;orthogonalLoop=1;jettySize=auto;html=1;" edge="1" parent="7CGdwvpUWdOLOoQ3-cU6-1" source="oYoXS9Sdqx0aGaguvP7D-12" target="oYoXS9Sdqx0aGaguvP7D-19">
          <mxGeometry relative="1" as="geometry" />
        </mxCell>
        <mxCell id="oYoXS9Sdqx0aGaguvP7D-12" value="" style="rhombus;whiteSpace=wrap;html=1;" vertex="1" parent="7CGdwvpUWdOLOoQ3-cU6-1">
          <mxGeometry x="255" y="590" width="30" height="30" as="geometry" />
        </mxCell>
        <mxCell id="oYoXS9Sdqx0aGaguvP7D-21" style="edgeStyle=orthogonalEdgeStyle;rounded=0;orthogonalLoop=1;jettySize=auto;html=1;" edge="1" parent="7CGdwvpUWdOLOoQ3-cU6-1" source="oYoXS9Sdqx0aGaguvP7D-19" target="7CGdwvpUWdOLOoQ3-cU6-17">
          <mxGeometry relative="1" as="geometry">
            <mxPoint x="360" y="665" as="targetPoint" />
          </mxGeometry>
        </mxCell>
        <mxCell id="oYoXS9Sdqx0aGaguvP7D-22" value="[n]" style="edgeLabel;html=1;align=center;verticalAlign=middle;resizable=0;points=[];" vertex="1" connectable="0" parent="oYoXS9Sdqx0aGaguvP7D-21">
          <mxGeometry x="-0.1062" relative="1" as="geometry">
            <mxPoint as="offset" />
          </mxGeometry>
        </mxCell>
        <mxCell id="oYoXS9Sdqx0aGaguvP7D-24" style="edgeStyle=orthogonalEdgeStyle;rounded=0;orthogonalLoop=1;jettySize=auto;html=1;" edge="1" parent="7CGdwvpUWdOLOoQ3-cU6-1" source="oYoXS9Sdqx0aGaguvP7D-19" target="oYoXS9Sdqx0aGaguvP7D-23">
          <mxGeometry relative="1" as="geometry" />
        </mxCell>
        <mxCell id="oYoXS9Sdqx0aGaguvP7D-26" value="[y]" style="edgeLabel;html=1;align=center;verticalAlign=middle;resizable=0;points=[];" vertex="1" connectable="0" parent="oYoXS9Sdqx0aGaguvP7D-24">
          <mxGeometry x="-0.6193" y="-1" relative="1" as="geometry">
            <mxPoint as="offset" />
          </mxGeometry>
        </mxCell>
        <mxCell id="oYoXS9Sdqx0aGaguvP7D-19" value="confirm" style="rhombus;whiteSpace=wrap;html=1;" vertex="1" parent="7CGdwvpUWdOLOoQ3-cU6-1">
          <mxGeometry x="245" y="640" width="50" height="50" as="geometry" />
        </mxCell>
        <mxCell id="oYoXS9Sdqx0aGaguvP7D-25" style="edgeStyle=orthogonalEdgeStyle;rounded=0;orthogonalLoop=1;jettySize=auto;html=1;" edge="1" parent="7CGdwvpUWdOLOoQ3-cU6-1" source="oYoXS9Sdqx0aGaguvP7D-23" target="7CGdwvpUWdOLOoQ3-cU6-17">
          <mxGeometry relative="1" as="geometry" />
        </mxCell>
        <mxCell id="oYoXS9Sdqx0aGaguvP7D-23" value="Save Order" style="" vertex="1" parent="7CGdwvpUWdOLOoQ3-cU6-1">
          <mxGeometry x="215" y="730" width="110" height="50" as="geometry" />
        </mxCell>
      </root>
    </mxGraphModel>
  </diagram>
</mxfile>
